<mxfile host="app.diagrams.net" modified="2023-11-03T15:32:22.561Z" agent="Mozilla/5.0 (X11; Linux x86_64; rv:109.0) Gecko/20100101 Firefox/119.0" etag="txBfIA2Se7RqoC5xwY5G" version="22.0.8" type="device">
  <diagram id="C5RBs43oDa-KdzZeNtuy" name="Page-1">
    <mxGraphModel dx="1434" dy="778" grid="1" gridSize="10" guides="1" tooltips="1" connect="1" arrows="1" fold="1" page="1" pageScale="1" pageWidth="827" pageHeight="1169" math="0" shadow="0">
      <root>
        <mxCell id="WIyWlLk6GJQsqaUBKTNV-0" />
        <mxCell id="WIyWlLk6GJQsqaUBKTNV-1" parent="WIyWlLk6GJQsqaUBKTNV-0" />
        <mxCell id="zkfFHV4jXpPFQw0GAbJ--0" value="myStudent" style="swimlane;fontStyle=2;align=center;verticalAlign=top;childLayout=stackLayout;horizontal=1;startSize=26;horizontalStack=0;resizeParent=1;resizeLast=0;collapsible=1;marginBottom=0;rounded=0;shadow=0;strokeWidth=1;" parent="WIyWlLk6GJQsqaUBKTNV-1" vertex="1">
          <mxGeometry x="160" y="100" width="270" height="210" as="geometry">
            <mxRectangle x="230" y="140" width="160" height="26" as="alternateBounds" />
          </mxGeometry>
        </mxCell>
        <mxCell id="zkfFHV4jXpPFQw0GAbJ--1" value="- string: studentCode" style="text;align=left;verticalAlign=top;spacingLeft=4;spacingRight=4;overflow=hidden;rotatable=0;points=[[0,0.5],[1,0.5]];portConstraint=eastwest;" parent="zkfFHV4jXpPFQw0GAbJ--0" vertex="1">
          <mxGeometry y="26" width="270" height="26" as="geometry" />
        </mxCell>
        <mxCell id="zkfFHV4jXpPFQw0GAbJ--2" value="- string: studentName" style="text;align=left;verticalAlign=top;spacingLeft=4;spacingRight=4;overflow=hidden;rotatable=0;points=[[0,0.5],[1,0.5]];portConstraint=eastwest;rounded=0;shadow=0;html=0;" parent="zkfFHV4jXpPFQw0GAbJ--0" vertex="1">
          <mxGeometry y="52" width="270" height="26" as="geometry" />
        </mxCell>
        <mxCell id="zkfFHV4jXpPFQw0GAbJ--3" value="- vector&lt;myUc&gt;: classes" style="text;align=left;verticalAlign=top;spacingLeft=4;spacingRight=4;overflow=hidden;rotatable=0;points=[[0,0.5],[1,0.5]];portConstraint=eastwest;rounded=0;shadow=0;html=0;" parent="zkfFHV4jXpPFQw0GAbJ--0" vertex="1">
          <mxGeometry y="78" width="270" height="26" as="geometry" />
        </mxCell>
        <mxCell id="zkfFHV4jXpPFQw0GAbJ--4" value="" style="line;html=1;strokeWidth=1;align=left;verticalAlign=middle;spacingTop=-1;spacingLeft=3;spacingRight=3;rotatable=0;labelPosition=right;points=[];portConstraint=eastwest;" parent="zkfFHV4jXpPFQw0GAbJ--0" vertex="1">
          <mxGeometry y="104" width="270" height="8" as="geometry" />
        </mxCell>
        <mxCell id="Cs8GIhasUFv6r49HJEoH-1" value="&lt;div align=&quot;left&quot;&gt;+ void addClass(const myUc &amp;amp;myClass);&lt;/div&gt;&lt;div align=&quot;left&quot;&gt;+ void changeClass(const myUc &amp;amp;myClass);&amp;nbsp;&lt;/div&gt;&lt;div align=&quot;left&quot;&gt;+ void addUc(const myUc &amp;amp;myClass);&amp;nbsp;&amp;nbsp;&amp;nbsp;&lt;/div&gt;&lt;div align=&quot;left&quot;&gt;+ void removeUc(const myUc &amp;amp;myClass);&amp;nbsp;&amp;nbsp;&amp;nbsp;&lt;/div&gt;&lt;div align=&quot;left&quot;&gt;+ bool valideQtClasses();&lt;/div&gt;" style="text;html=1;strokeColor=none;fillColor=none;align=left;verticalAlign=middle;whiteSpace=wrap;rounded=0;" vertex="1" parent="zkfFHV4jXpPFQw0GAbJ--0">
          <mxGeometry y="112" width="270" height="98" as="geometry" />
        </mxCell>
        <mxCell id="Cs8GIhasUFv6r49HJEoH-3" value="myUc" style="swimlane;fontStyle=2;align=center;verticalAlign=top;childLayout=stackLayout;horizontal=1;startSize=26;horizontalStack=0;resizeParent=1;resizeLast=0;collapsible=1;marginBottom=0;rounded=0;shadow=0;strokeWidth=1;" vertex="1" parent="WIyWlLk6GJQsqaUBKTNV-1">
          <mxGeometry x="80" y="370" width="530" height="210" as="geometry">
            <mxRectangle x="230" y="140" width="160" height="26" as="alternateBounds" />
          </mxGeometry>
        </mxCell>
        <mxCell id="Cs8GIhasUFv6r49HJEoH-4" value="- string: classCode" style="text;align=left;verticalAlign=top;spacingLeft=4;spacingRight=4;overflow=hidden;rotatable=0;points=[[0,0.5],[1,0.5]];portConstraint=eastwest;" vertex="1" parent="Cs8GIhasUFv6r49HJEoH-3">
          <mxGeometry y="26" width="530" height="26" as="geometry" />
        </mxCell>
        <mxCell id="Cs8GIhasUFv6r49HJEoH-5" value="- string: ucCode" style="text;align=left;verticalAlign=top;spacingLeft=4;spacingRight=4;overflow=hidden;rotatable=0;points=[[0,0.5],[1,0.5]];portConstraint=eastwest;rounded=0;shadow=0;html=0;" vertex="1" parent="Cs8GIhasUFv6r49HJEoH-3">
          <mxGeometry y="52" width="530" height="26" as="geometry" />
        </mxCell>
        <mxCell id="Cs8GIhasUFv6r49HJEoH-6" value="- vector&lt;classInfo&gt; classInfoVec" style="text;align=left;verticalAlign=top;spacingLeft=4;spacingRight=4;overflow=hidden;rotatable=0;points=[[0,0.5],[1,0.5]];portConstraint=eastwest;rounded=0;shadow=0;html=0;" vertex="1" parent="Cs8GIhasUFv6r49HJEoH-3">
          <mxGeometry y="78" width="530" height="26" as="geometry" />
        </mxCell>
        <mxCell id="Cs8GIhasUFv6r49HJEoH-7" value="" style="line;html=1;strokeWidth=1;align=left;verticalAlign=middle;spacingTop=-1;spacingLeft=3;spacingRight=3;rotatable=0;labelPosition=right;points=[];portConstraint=eastwest;" vertex="1" parent="Cs8GIhasUFv6r49HJEoH-3">
          <mxGeometry y="104" width="530" height="8" as="geometry" />
        </mxCell>
        <mxCell id="Cs8GIhasUFv6r49HJEoH-8" value="&lt;div&gt;- void addClass(const std::string &amp;amp;code);&lt;/div&gt;&lt;div&gt;- void addClassInfo(std::string type, std::string day, int dayInt, double startTime, double duration);&lt;/div&gt;&lt;div&gt;- bool operator&amp;lt;(const myUc &amp;amp;other) const;&amp;nbsp;&amp;nbsp;&amp;nbsp;&lt;/div&gt;&lt;div&gt;- static bool compareUcCode(const myUc &amp;amp;a, const myUc &amp;amp;b);&lt;/div&gt;" style="text;html=1;strokeColor=none;fillColor=none;align=left;verticalAlign=middle;whiteSpace=wrap;rounded=0;" vertex="1" parent="Cs8GIhasUFv6r49HJEoH-3">
          <mxGeometry y="112" width="530" height="98" as="geometry" />
        </mxCell>
        <mxCell id="Cs8GIhasUFv6r49HJEoH-9" style="edgeStyle=orthogonalEdgeStyle;rounded=0;orthogonalLoop=1;jettySize=auto;html=1;exitX=0;exitY=0.5;exitDx=0;exitDy=0;entryX=0.489;entryY=0;entryDx=0;entryDy=0;entryPerimeter=0;" edge="1" parent="WIyWlLk6GJQsqaUBKTNV-1" source="zkfFHV4jXpPFQw0GAbJ--3" target="Cs8GIhasUFv6r49HJEoH-3">
          <mxGeometry relative="1" as="geometry">
            <Array as="points">
              <mxPoint x="140" y="191" />
              <mxPoint x="140" y="340" />
              <mxPoint x="339" y="340" />
            </Array>
          </mxGeometry>
        </mxCell>
        <mxCell id="Cs8GIhasUFv6r49HJEoH-11" value="contains" style="edgeLabel;html=1;align=center;verticalAlign=middle;resizable=0;points=[];" vertex="1" connectable="0" parent="Cs8GIhasUFv6r49HJEoH-9">
          <mxGeometry x="0.0598" y="1" relative="1" as="geometry">
            <mxPoint as="offset" />
          </mxGeometry>
        </mxCell>
        <mxCell id="Cs8GIhasUFv6r49HJEoH-12" value="*" style="edgeLabel;html=1;align=center;verticalAlign=middle;resizable=0;points=[];" vertex="1" connectable="0" parent="Cs8GIhasUFv6r49HJEoH-9">
          <mxGeometry x="0.8694" y="1" relative="1" as="geometry">
            <mxPoint x="-10" as="offset" />
          </mxGeometry>
        </mxCell>
        <mxCell id="Cs8GIhasUFv6r49HJEoH-13" value="1" style="edgeLabel;html=1;align=center;verticalAlign=middle;resizable=0;points=[];" vertex="1" connectable="0" parent="Cs8GIhasUFv6r49HJEoH-9">
          <mxGeometry x="-0.8443" y="-2" relative="1" as="geometry">
            <mxPoint as="offset" />
          </mxGeometry>
        </mxCell>
        <mxCell id="Cs8GIhasUFv6r49HJEoH-14" value="classInfo (struct)" style="swimlane;fontStyle=2;align=center;verticalAlign=top;childLayout=stackLayout;horizontal=1;startSize=26;horizontalStack=0;resizeParent=1;resizeLast=0;collapsible=1;marginBottom=0;rounded=0;shadow=0;strokeWidth=1;" vertex="1" parent="WIyWlLk6GJQsqaUBKTNV-1">
          <mxGeometry x="80" y="640" width="270" height="200" as="geometry">
            <mxRectangle x="230" y="140" width="160" height="26" as="alternateBounds" />
          </mxGeometry>
        </mxCell>
        <mxCell id="Cs8GIhasUFv6r49HJEoH-15" value="+ string: code" style="text;align=left;verticalAlign=top;spacingLeft=4;spacingRight=4;overflow=hidden;rotatable=0;points=[[0,0.5],[1,0.5]];portConstraint=eastwest;" vertex="1" parent="Cs8GIhasUFv6r49HJEoH-14">
          <mxGeometry y="26" width="270" height="26" as="geometry" />
        </mxCell>
        <mxCell id="Cs8GIhasUFv6r49HJEoH-16" value="+ string: type" style="text;align=left;verticalAlign=top;spacingLeft=4;spacingRight=4;overflow=hidden;rotatable=0;points=[[0,0.5],[1,0.5]];portConstraint=eastwest;rounded=0;shadow=0;html=0;" vertex="1" parent="Cs8GIhasUFv6r49HJEoH-14">
          <mxGeometry y="52" width="270" height="26" as="geometry" />
        </mxCell>
        <mxCell id="Cs8GIhasUFv6r49HJEoH-17" value="+ int: dayInt" style="text;align=left;verticalAlign=top;spacingLeft=4;spacingRight=4;overflow=hidden;rotatable=0;points=[[0,0.5],[1,0.5]];portConstraint=eastwest;rounded=0;shadow=0;html=0;" vertex="1" parent="Cs8GIhasUFv6r49HJEoH-14">
          <mxGeometry y="78" width="270" height="26" as="geometry" />
        </mxCell>
        <mxCell id="Cs8GIhasUFv6r49HJEoH-20" value="+ double: startTime" style="text;align=left;verticalAlign=top;spacingLeft=4;spacingRight=4;overflow=hidden;rotatable=0;points=[[0,0.5],[1,0.5]];portConstraint=eastwest;rounded=0;shadow=0;html=0;" vertex="1" parent="Cs8GIhasUFv6r49HJEoH-14">
          <mxGeometry y="104" width="270" height="26" as="geometry" />
        </mxCell>
        <mxCell id="Cs8GIhasUFv6r49HJEoH-21" value="+ double: duration" style="text;align=left;verticalAlign=top;spacingLeft=4;spacingRight=4;overflow=hidden;rotatable=0;points=[[0,0.5],[1,0.5]];portConstraint=eastwest;rounded=0;shadow=0;html=0;" vertex="1" parent="Cs8GIhasUFv6r49HJEoH-14">
          <mxGeometry y="130" width="270" height="26" as="geometry" />
        </mxCell>
        <mxCell id="Cs8GIhasUFv6r49HJEoH-18" value="" style="line;html=1;strokeWidth=1;align=left;verticalAlign=middle;spacingTop=-1;spacingLeft=3;spacingRight=3;rotatable=0;labelPosition=right;points=[];portConstraint=eastwest;" vertex="1" parent="Cs8GIhasUFv6r49HJEoH-14">
          <mxGeometry y="156" width="270" height="8" as="geometry" />
        </mxCell>
        <mxCell id="Cs8GIhasUFv6r49HJEoH-19" value="+ bool operator&amp;lt;(const classInfo &amp;amp;other);" style="text;html=1;strokeColor=none;fillColor=none;align=left;verticalAlign=middle;whiteSpace=wrap;rounded=0;" vertex="1" parent="Cs8GIhasUFv6r49HJEoH-14">
          <mxGeometry y="164" width="270" height="36" as="geometry" />
        </mxCell>
        <mxCell id="Cs8GIhasUFv6r49HJEoH-22" style="edgeStyle=orthogonalEdgeStyle;rounded=0;orthogonalLoop=1;jettySize=auto;html=1;exitX=0;exitY=0.5;exitDx=0;exitDy=0;entryX=0.5;entryY=0;entryDx=0;entryDy=0;" edge="1" parent="WIyWlLk6GJQsqaUBKTNV-1" source="Cs8GIhasUFv6r49HJEoH-6" target="Cs8GIhasUFv6r49HJEoH-14">
          <mxGeometry relative="1" as="geometry">
            <Array as="points">
              <mxPoint x="50" y="461" />
              <mxPoint x="50" y="610" />
              <mxPoint x="215" y="610" />
            </Array>
          </mxGeometry>
        </mxCell>
        <mxCell id="Cs8GIhasUFv6r49HJEoH-23" value="1" style="edgeLabel;html=1;align=center;verticalAlign=middle;resizable=0;points=[];" vertex="1" connectable="0" parent="Cs8GIhasUFv6r49HJEoH-22">
          <mxGeometry x="-0.7754" y="-2" relative="1" as="geometry">
            <mxPoint as="offset" />
          </mxGeometry>
        </mxCell>
        <mxCell id="Cs8GIhasUFv6r49HJEoH-24" value="contains" style="edgeLabel;html=1;align=center;verticalAlign=middle;resizable=0;points=[];" vertex="1" connectable="0" parent="Cs8GIhasUFv6r49HJEoH-22">
          <mxGeometry x="0.0642" y="1" relative="1" as="geometry">
            <mxPoint x="10" as="offset" />
          </mxGeometry>
        </mxCell>
        <mxCell id="Cs8GIhasUFv6r49HJEoH-25" value="*" style="edgeLabel;html=1;align=center;verticalAlign=middle;resizable=0;points=[];" vertex="1" connectable="0" parent="Cs8GIhasUFv6r49HJEoH-22">
          <mxGeometry x="0.7594" relative="1" as="geometry">
            <mxPoint as="offset" />
          </mxGeometry>
        </mxCell>
        <mxCell id="Cs8GIhasUFv6r49HJEoH-26" value="classQtd (struct)" style="swimlane;fontStyle=2;align=center;verticalAlign=top;childLayout=stackLayout;horizontal=1;startSize=26;horizontalStack=0;resizeParent=1;resizeLast=0;collapsible=1;marginBottom=0;rounded=0;shadow=0;strokeWidth=1;" vertex="1" parent="WIyWlLk6GJQsqaUBKTNV-1">
          <mxGeometry x="390" y="640" width="270" height="122" as="geometry">
            <mxRectangle x="230" y="140" width="160" height="26" as="alternateBounds" />
          </mxGeometry>
        </mxCell>
        <mxCell id="Cs8GIhasUFv6r49HJEoH-27" value="+ string: classCode" style="text;align=left;verticalAlign=top;spacingLeft=4;spacingRight=4;overflow=hidden;rotatable=0;points=[[0,0.5],[1,0.5]];portConstraint=eastwest;" vertex="1" parent="Cs8GIhasUFv6r49HJEoH-26">
          <mxGeometry y="26" width="270" height="26" as="geometry" />
        </mxCell>
        <mxCell id="Cs8GIhasUFv6r49HJEoH-28" value="+ int: qtd" style="text;align=left;verticalAlign=top;spacingLeft=4;spacingRight=4;overflow=hidden;rotatable=0;points=[[0,0.5],[1,0.5]];portConstraint=eastwest;rounded=0;shadow=0;html=0;" vertex="1" parent="Cs8GIhasUFv6r49HJEoH-26">
          <mxGeometry y="52" width="270" height="26" as="geometry" />
        </mxCell>
        <mxCell id="Cs8GIhasUFv6r49HJEoH-32" value="" style="line;html=1;strokeWidth=1;align=left;verticalAlign=middle;spacingTop=-1;spacingLeft=3;spacingRight=3;rotatable=0;labelPosition=right;points=[];portConstraint=eastwest;" vertex="1" parent="Cs8GIhasUFv6r49HJEoH-26">
          <mxGeometry y="78" width="270" height="8" as="geometry" />
        </mxCell>
        <mxCell id="Cs8GIhasUFv6r49HJEoH-33" value="+ bool operator&amp;lt;(const classQtd &amp;amp;other);" style="text;html=1;strokeColor=none;fillColor=none;align=left;verticalAlign=middle;whiteSpace=wrap;rounded=0;" vertex="1" parent="Cs8GIhasUFv6r49HJEoH-26">
          <mxGeometry y="86" width="270" height="36" as="geometry" />
        </mxCell>
      </root>
    </mxGraphModel>
  </diagram>
</mxfile>
